<svg viewBox="0 0 1900 1500" height="1500" width="1900" xmlns="http://www.w3.org/2000/svg" version="1.1"><g transform-origin="center" transform="scale(1, 1) rotate(0)"><rect x="0" y="0" width="1900" height="1500" fill="#FFEDD3"></rect><linearGradient id="linear-gradient-r0"><stop offset="0%" stop-color="#FCD2D1" stop-opacity="100%"></stop><stop offset="100%" stop-color="#FE8F8F" stop-opacity="100%"></stop></linearGradient><filter id="shadow-r0" x="0" width="100%" y="-20%" height="150%"><feDropShadow dx="-18" dy="2" stdDeviation="15" flood-color="#00000061"></feDropShadow></filter><path d="M0 0 0,808.5627360851504 C 38,807.8615280566737 114,795.587433304172 190,805.056695942767 C 266,814.5259585813619 304,857.4316429207101 380,855.9090492781252 C 456,854.3864556355402 494,817.3382070264779 570,797.4437277298421 C 646,777.5492484332062 684,790.3401606832631 760,756.436652794946 C 836,722.5331449066289 874,646.3987603550777 950,627.9261882882565 C 1026,609.4536162214354 1064,654.7225842135958 1140,664.0737924608402 C 1216,673.4250007080846 1254,657.3973874328658 1330,674.6822295244783 C 1406,691.9670716160908 1444,734.8550963914022 1520,750.4980029189028 C 1596,766.1409094464034 1634,763.5888170683756 1710,752.8967621619813 C 1786,742.204707255587 1862,708.2095351419412 1900,697.0377283869311 L1900 1500 L0 1500Z" fill="none" stroke-linecap="round" stroke-width="1" style="transition: all 0.4s cubic-bezier(0.16, 1, 0.3, 1) 0s; fill: url(&quot;#linear-gradient-r0&quot;);" filter="url(#shadow-r0)"></path><path d="M0 0 0,966.0680351313204 C 38,978.2725999318063 113.99999999999999,1028.9179715048522 190,1027.0908591337502 C 266,1025.2637467626482 304,980.8058484317735 380,956.9324732758105 C 456,933.0590981198475 494,948.4081928199157 570,907.7239833539352 C 646,867.0397738879547 684,775.6785124260932 760,753.5114259459078 C 836,731.3443394657224 874,785.667101056315 950,796.8885509530082 C 1026,808.1100008497015 1064,788.876864919439 1140,809.618675429374 C 1216,830.360485939309 1254,881.8261156696826 1330,900.5976035026833 C 1406,919.3690913356841 1444,916.3065804820508 1520,903.4761145943776 C 1596,890.6456487067044 1634,833.1611380213872 1710,836.4452740643173 C 1786,839.7294101072475 1862,903.2064906600863 1900,919.8967948090285 L1900 1500 L0 1500Z" fill="none" stroke-linecap="round" stroke-width="1" style="transition: all 0.4s cubic-bezier(0.16, 1, 0.3, 1) 0s; fill: url(&quot;#linear-gradient-r0&quot;);" filter="url(#shadow-r0)"></path></g></svg>